<svg width="140" height="140" viewBox="0 0 140 140" fill="none" xmlns="http://www.w3.org/2000/svg"><path d="M10.865 25.9678L86.3028 14.7738C89.137 14.3532 91.7442 16.3956 92.0144 19.248L96.4828 66.4138L125.695 84.4566C129.162 86.5983 128.749 91.7661 124.984 93.3286L49.5841 124.627C47.6062 125.448 45.325 124.918 43.9114 123.309L14.2759 89.5862L6.64161 31.5659C6.28556 28.8599 8.16525 26.3684 10.865 25.9678Z" fill="#D9D9D9"></path><path d="M96.4828 66.4138L92.0144 19.248C91.7442 16.3956 89.137 14.3532 86.3028 14.7738L10.865 25.9678C8.16525 26.3684 6.28556 28.8599 6.64161 31.5659L14.2759 89.5862M96.4828 66.4138L14.2759 89.5862M96.4828 66.4138L125.695 84.4566C129.162 86.5983 128.749 91.7661 124.984 93.3286L49.5841 124.627C47.6062 125.448 45.325 124.918 43.9114 123.309L14.2759 89.5862" stroke="black"></path><path d="M9.31035 29.9996L88.7586 17.3111L93.7241 65.3102L16.4828 86.2757L9.31035 29.9996Z" fill="black"></path><path d="M66.7038 100.438L94.2901 89.9548L103.118 97.128L71.6693 109L66.7038 100.438Z" fill="#B7B7B7"></path><path d="M20.3448 92.7339L97.5862 70.6649L113.586 80.596L33.5862 106.527L20.3448 92.7339Z" fill="#B7B7B7"></path><rect x="18" y="36.3447" width="3" height="6" transform="rotate(-6.60068 18 36.3447)" fill="white"></rect></svg>